<mxfile host="app.diagrams.net" modified="2020-10-20T04:50:44.287Z" agent="5.0 (Windows NT 10.0; Win64; x64) AppleWebKit/537.36 (KHTML, like Gecko) Chrome/86.0.4240.75 Safari/537.36" etag="fyZT6uO1idk6rmhU-46t" version="13.8.0" type="github">
  <diagram id="C5RBs43oDa-KdzZeNtuy" name="Page-1">
    <mxGraphModel dx="1038" dy="491" grid="1" gridSize="10" guides="1" tooltips="1" connect="1" arrows="1" fold="1" page="1" pageScale="1" pageWidth="827" pageHeight="1169" math="0" shadow="0">
      <root>
        <mxCell id="WIyWlLk6GJQsqaUBKTNV-0" />
        <mxCell id="WIyWlLk6GJQsqaUBKTNV-1" parent="WIyWlLk6GJQsqaUBKTNV-0" />
        <mxCell id="OfNNAy9kKyYKoiOuk11C-0" value="" style="shape=image;verticalLabelPosition=bottom;labelBackgroundColor=#ffffff;verticalAlign=top;aspect=fixed;imageAspect=0;image=data:image/png,iVBORw0KGgoAAAANSUhEUgAAAI0AAAB0CAYAAAC4w7F0AAAACXBIWXMAAA9h&#xa;AAAPYQGoP6dpAAAKjklEQVR4Xu2dT8huUxTGnzuk/ClmIukWMyWZoG4mjA1Q&#xa;GBkoJESK/I8UUUIMjDBgoMwwcG9hIikzJtyUohgwYHj16Dx6Wu19ztnve77v&#xa;nnP3OpPve7/3nH3WXut31t776zxrHwFwHMAx5JEemOeBE0cAnALAn3mkB+Z4&#xa;4FRCM8dNeY57IKFJHpo9kNA0uywvSGiSgWYPJDTNLssLEppkoNkDCU2zy/KC&#xa;bqB5AsCzId53AHh/DwauBXAngAcB/LNHO1u7tCtoGJznhghdDuA1APcD+GHH&#xa;qCU0OzpuK5cx0zg0ZwF4FcC7AL4CoM93D+ddN/ydHwnYBwCuBPApgNsB/AHA&#xa;oeF5bO8XA3Mrvmm1s+tM8zSA+wYACNVFw1BzFYA3ANwK4PdhCCNcHMrieRye&#xa;HgfwvAHYGoStnd8VNHFOo2xSyzpfAPgGgMPlw9qFw5zmLwDf7Tk/2hI4XUFT&#xa;Gp4IxidDwDnf4VDFgxnlRwAnh981JF0A4PUBJELzJQAOaUcBPNXJhLhbaAgG&#xa;QbgMwMuV+c3cTMPV08MDZPusxraSbbqFRkMSwSjNVVrmNITmkjCMbQWAXezs&#xa;Cpo4p3nSVjr7rp74fxplLi3rdwnIFq7pBpotBGMrNiY0W4nUiuxMaFYUjK2Y&#xa;ktBsJVIrsjOhWVEwtmJKQrOVSK3IzoRmRcHYiikJzVYitSI7/4PmJwCXrsio&#xa;NGXdHjiZYrl1B2iN1uXwtMaorNymhGblAVqjeQnNGqOycpsSmpUHaI3mJTRr&#xa;jMrKbUpoVh6gNZqX0KwxKiu3aRQaf4lagrKoVHR90JSKkd9TK6SXtOkbvt3v&#xa;b/vLX1EhUPNj7fqV+33T5jVB45ofvt4oEdm9w1v8UZAWVYyCyuWw+wZ93+s3&#xa;Hb3TZPxsaH4e3tjXi9iy10GZUjHy+3MGpaLksB50til5iO5HkRoFa8xGfw5y&#xa;EZ7HDPf98FL4jUH5eJp82c1tZ0PD4YnDynsA/IVs91Qp00QVI7VEPCgd4QvY&#xa;c4YnQkNZ7EsF5UBPKoC1UNkEDY3mPIeSDz7dPByg0pwmznkIjYvTlEUkjy3N&#xa;aXiOi/VdQ53QHD5KzdC4iSXtEL+XhKP0PaEhdAr8WwAeNU11DRrPWAnN4YPi&#xa;d5wNDZ92itwpdmfFBB2u9YnDE8+J3wsaAUUd9MUJzemloPHus6HhnCZCoaHK&#xa;KyrMzTQ8T6uvX8MynN/5kjsOYZlpGqO88OlN0PDecd7iy+fSnCbOeZRpPFOx&#xa;XAczEo+x1ZPmPQ7N2Vatwf//s7CfsjnzQP5HOHFo9kBC0+yyvCChSQaaPZDQ&#xa;NLssL0hokoFmDyQ0zS7LCxKaZKDZAwlNs8vygoQmGWj2QELT7LK8IKFJBpo9&#xa;kNA0uywvSGiSgWYPJDTNLssLEppkoNkDCU2zy/KChCYZaPbAbGiiUG7qTi5N&#xa;4RY3JRXlVBvx+xaFZmvbS50/Jt47U4R9s6BhZ7nTCA9uuTdnz8eDgoabYiyp&#xa;0FwKFrVzpoAx5pdZ0Oj9XTYkkRt/jw7Su7uUsLwzaKO45yM3z3oAwNcAXhl2&#xa;YeNWf4KP13GzLR5vB0DPH7YFpH7qhgmFpvaVVFtsT7or2Ub1wyODIpN2cose&#xa;7k3pIJbsoQxZG4dRghN3beH10nNJ8cl+a+eXU+YHvut8xaDAoI23BZ+4toz+&#xa;OG/I1HMe1qUfglJ7k9DQOc8MEEQZSw2auP8Rh6cxhSS/ox78W9s8VBt3+Uai&#xa;CprDGzOai+oI+/W2LyVhIkS6Dyua8hwGkG3zd9qqNiQNLm1m6tIcBlnyHh+K&#xa;1W9p3d1W3jPao/u46oP3IeT+kB0GGHtlGnb0Lttqjx36fBD8t0BTU0hyk1Hf&#xa;25pPOe/Be/Kna8cFzRyFJjvtqgXeR2AwI3nW8H7cZKAxu9S2Ua7t7TQGcYTG&#xa;7VF7b5oig5mlVLlj9dBIv+2GSpbSAk1NIXlzCJLa5PZ+dKq2QOb9PdA1hWaU&#xa;0Wi4i3COQUO9uh++rbL/3e+lYXBsLheh8YdF0HwYJMibg0Zjq28I6p2gAx0G&#xa;Hw5cYx1XTzEDjGWaGjQlhaYPM3Hf7BZofN4256mu+ST2ew40m880GipchOb6&#xa;bG4/HOcjdHJpTjOmxR6b09Sg0USc10qh6dD8PcyPZM9caHxOI1Wp9uvmcKXD&#xa;M9XYnCZuz6zPtLWUafiAbnpOU9Jm02mESKpIzgGYzrkvNZ8SBofQuPJRq6eS&#xa;QlLzhtrqaQyaaItA4ZbHtIf35cpEqxUPUm14iiswH5oiKF49Q8OTsjNti/2e&#xa;k2kIja+eHgJwzdZWT3PSc55zcB4oZfuDu9u8lieX3POaybOW8kD8/w8z5pqW&#xa;2+xnQrNUtDtqJ6HpKNhLdTWhWcqTHbWT0HQU7KW6mtAs5cmO2kloOgr2Ul1N&#xa;aJbyZEftJDQdBXupriY0S3myo3YSmo6CvVRX/4dmqQaznQ48kPtydxDkhbuY&#xa;w9PCDu2huYSmhygv3MeEZmGH9tBcQtNDlBfuY0KzsEN7aC6h6SHKC/cxoVnY&#xa;oT00l9D0EOWF+5jQLOzQHppLaHqI8sJ9TGgWdmgPzc2CRpUiWGrEK0jQQbFA&#xa;gO/D7Q50Xfj3YW9vnVfbJH6XQNSqPZT06XPad526y3Nr95nTZumcpdvb1Y6x&#xa;6yahcZ0y9ccsLKR9t12eSznrWEBK0HhhAd8d96uD6OnQZkKzv3Or0LieON7G&#xa;qz554HmePyn8zHJr1Faz5AeLCPF8ZZp4rbTSLCzAejY8WEFKxYYo9mfVKumr&#xa;pd0u6b1PmsC+Zgfh1DbP3q72HVdFLKocPwNw7qBTZ3kUVZYoVdjygglejiSW&#xa;fYv9iZUuVH1L1bRq1brYP6/4Re06j1hha39chphMvRpBpyi7eEGjORpjL+7I&#xa;wgCq/FSCxjMAh0FVkmBgS/t/q5KDB9BLfrD6gwT/rHWj88fscHtZKqVWESMO&#xa;T+yXAhorPqhQglfFUv99P3O3T3Z77R63h/5pqfhVquS1D0CTw5Pq7X1kZdRY&#xa;gmNq7I3DjX+uzWnkeD797pRYPMm/ZzBUUcrLd6i0yGMAXrDiSG4HHefVqMaq&#xa;OtT6Gx8eb+MeAL4PuYBi4aJYgkT9Feyyu1QJjNUq/Bir+FWr2HUg0EwNT0z/&#xa;7vBoRJw7lKCJw5PaKFXY8nt5RuFTpw3gb7EgxaKRuleExos68v4S3F89s4xa&#xa;hClW8vKgK4AsP1frT4SGQ7sfWizMrfh1qNDQ0LFJcG1CqRp9L4484bU5TQ2a&#xa;sUyjwkO/ATg6FJT0TDiVabxmTe3pHau9FzONf14i0/h8TfaV7ql+xOJNhw6N&#xa;F2nk+MrDU2Nt9aSxulZdsxWasTmNF0VSfb0YZJ8bjM1pvD/qKzOUqoHybyzY&#xa;VJrTaCJ6UHMaFYmibz3LT1X8OnRoapNgfyLj/2l8hu+1VhhQ1vD9eGT1VMs0&#xa;/PvYKidCxfPHVnGyI66eYi0YryfMYYKZjNWtxlZPDq7mTKXVT60/cbjzYUhD&#xa;k/t1quLXoUOzz2Qprz1zPTC5ejpzu54929UDCc2unuv4uoSm4+Dv2vWEZlfP&#xa;dXxdQtNx8HftekKzq+c6vi6h6Tj4u3b9P2iOAzi2awt5XXceOEFo8kgPNHkg&#xa;oWlyV55MDyQ0yUGzB/4F9P6koJUt01QAAAAASUVORK5CYII=&#xa;;" vertex="1" parent="WIyWlLk6GJQsqaUBKTNV-1">
          <mxGeometry x="330" y="140" width="141" height="116" as="geometry" />
        </mxCell>
      </root>
    </mxGraphModel>
  </diagram>
</mxfile>
